<svg width="1200" height="630" viewBox="0 0 1200 630" fill="none" xmlns="http://www.w3.org/2000/svg" role="img" aria-labelledby="title desc">
  <title id="title">Goal Forge README cover</title>
  <desc id="desc">A clean mac terminal scene showing Goal Forge turning a rough coding idea into SPEC.md, GOAL.md, CONTROL.md, and a Codex agent pursuing a long-running goal with human sidecar controls.</desc>
  <defs>
    <linearGradient id="bg" x1="0" y1="0" x2="1200" y2="630" gradientUnits="userSpaceOnUse">
      <stop stop-color="#12151f"/>
      <stop offset="0.52" stop-color="#171827"/>
      <stop offset="1" stop-color="#1d1f2d"/>
    </linearGradient>
    <linearGradient id="terminal" x1="78" y1="95" x2="1088" y2="548" gradientUnits="userSpaceOnUse">
      <stop stop-color="#232637"/>
      <stop offset="1" stop-color="#171926"/>
    </linearGradient>
    <linearGradient id="forge" x1="208" y1="203" x2="893" y2="439" gradientUnits="userSpaceOnUse">
      <stop stop-color="#F6C177"/>
      <stop offset="0.48" stop-color="#EB6F92"/>
      <stop offset="1" stop-color="#9CCFD8"/>
    </linearGradient>
    <filter id="shadow" x="40" y="58" width="1120" height="540" filterUnits="userSpaceOnUse" color-interpolation-filters="sRGB">
      <feDropShadow dx="0" dy="26" stdDeviation="24" flood-color="#02040A" flood-opacity="0.42"/>
    </filter>
    <filter id="soft-glow" x="-20%" y="-20%" width="140%" height="140%" color-interpolation-filters="sRGB">
      <feGaussianBlur stdDeviation="18" result="blur"/>
      <feColorMatrix in="blur" type="matrix" values="1 0 0 0 0.93 0 1 0 0 0.44 0 0 1 0 0.58 0 0 0 0.34 0"/>
      <feBlend in2="SourceGraphic" mode="screen"/>
    </filter>
    <style>
      .ui { font-family: -apple-system, BlinkMacSystemFont, "Segoe UI", sans-serif; }
      .mono { font-family: ui-monospace, SFMono-Regular, Menlo, Monaco, Consolas, "Liberation Mono", monospace; }
      .muted { fill: #908CAA; }
      .text { fill: #E0DEF4; }
      .panel { fill: #202232; stroke: #393B4F; stroke-width: 1.4; }
      .chip { fill: #2A2D40; stroke: #44465E; stroke-width: 1.2; }
    </style>
  </defs>

  <rect width="1200" height="630" fill="url(#bg)"/>
  <circle cx="1037" cy="121" r="178" fill="#9CCFD8" opacity="0.08"/>
  <circle cx="143" cy="520" r="190" fill="#F6C177" opacity="0.08"/>
  <path d="M160 533C315 441 416 458 551 500C704 548 833 548 1046 430" stroke="#FFFFFF" stroke-opacity="0.06" stroke-width="2"/>

  <g filter="url(#shadow)">
    <rect x="78" y="82" width="1044" height="466" rx="24" fill="url(#terminal)" stroke="#3A3D51" stroke-width="1.4"/>
    <rect x="78" y="82" width="1044" height="54" rx="24" fill="#2A2D3E"/>
    <path d="M78 112C78 95.4315 91.4315 82 108 82H1092C1108.57 82 1122 95.4315 1122 112V136H78V112Z" fill="#2A2D3E"/>
    <circle cx="113" cy="109" r="7.5" fill="#EB6F92"/>
    <circle cx="139" cy="109" r="7.5" fill="#F6C177"/>
    <circle cx="165" cy="109" r="7.5" fill="#9CCFD8"/>
    <text x="600" y="115" text-anchor="middle" class="ui" font-size="15" font-weight="600" fill="#C4C7D7">goal-forge - Codex /goal contract</text>

    <g transform="translate(114 166)">
      <text class="ui" x="0" y="20" font-size="54" font-weight="760" fill="#F4F1F8">Goal Forge</text>
      <text class="ui" x="3" y="55" font-size="20" fill="#C4C7D7">Forge a Codex goal with scoring, memory, and human sidecar controls.</text>

      <g transform="translate(0 91)">
        <rect class="chip" x="0" y="0" width="166" height="50" rx="13"/>
        <text class="mono" x="22" y="31" font-size="17" fill="#F6C177">rough idea</text>
        <path d="M182 25H229" stroke="#6E6A86" stroke-width="3" stroke-linecap="round"/>
        <path d="M229 25L217 17V33L229 25Z" fill="#6E6A86"/>

        <rect class="chip" x="248" y="0" width="128" height="50" rx="13"/>
        <text class="mono" x="273" y="31" font-size="17" fill="#E0DEF4">SPEC.md</text>
        <path d="M392 25H439" stroke="#6E6A86" stroke-width="3" stroke-linecap="round"/>
        <path d="M439 25L427 17V33L439 25Z" fill="#6E6A86"/>

        <rect class="chip" x="458" y="0" width="156" height="50" rx="13"/>
        <text class="mono" x="481" y="31" font-size="17" fill="#EBBCBA">scorecard</text>
        <path d="M630 25H677" stroke="#6E6A86" stroke-width="3" stroke-linecap="round"/>
        <path d="M677 25L665 17V33L677 25Z" fill="#6E6A86"/>

        <rect class="chip" x="696" y="0" width="132" height="50" rx="13"/>
        <text class="mono" x="721" y="31" font-size="17" fill="#9CCFD8">GOAL.md</text>
      </g>

      <g transform="translate(0 190)">
        <rect x="0" y="0" width="630" height="132" rx="18" fill="#171927" stroke="#34374B" stroke-width="1.3"/>
        <text class="mono" x="26" y="37" font-size="19" fill="#A6E3A1">$ goal-forge compile SPEC.md</text>
        <text class="mono" x="26" y="70" font-size="18" fill="#E0DEF4">writes: GOAL.md + PLAN.md + CONTROL.md</text>
        <text class="mono" x="26" y="103" font-size="18" fill="#908CAA">sidecar reviews, fixes, and nudges while Codex runs</text>
      </g>
    </g>

    <g transform="translate(768 162)">
      <rect class="panel" x="0" y="0" width="332" height="298" rx="22"/>
      <g transform="translate(95 31)">
        <rect x="29" y="0" width="82" height="64" rx="18" fill="#303449" stroke="#565A73" stroke-width="1.4"/>
        <circle cx="53" cy="32" r="7" fill="#9CCFD8"/>
        <circle cx="87" cy="32" r="7" fill="#9CCFD8"/>
        <path d="M64 47C72 53 80 53 88 47" stroke="#E0DEF4" stroke-width="3" stroke-linecap="round"/>
        <path d="M70 -10V0" stroke="#F6C177" stroke-width="4" stroke-linecap="round"/>
        <circle cx="70" cy="-15" r="5" fill="#F6C177"/>
      </g>
      <text class="ui" x="166" y="128" text-anchor="middle" font-size="21" font-weight="700" fill="#F4F1F8">Codex agent</text>
      <text class="ui" x="166" y="156" text-anchor="middle" font-size="15" fill="#C4C7D7">keeps pursuing the goal</text>

      <g transform="translate(30 179)">
        <rect x="0" y="0" width="272" height="72" rx="15" fill="#171927" stroke="#4B5068" stroke-width="1.2"/>
        <text class="mono" x="18" y="27" font-size="16" fill="#F6C177">CONTROL.md</text>
        <text class="mono" x="129" y="27" font-size="15" fill="#9CCFD8">human sidecar</text>
        <text class="mono" x="18" y="54" font-size="14" fill="#C4C7D7">nudge: try smaller batch</text>
      </g>

      <g transform="translate(30 264)">
        <rect x="0" y="0" width="272" height="18" rx="9" fill="#2A2D40"/>
        <rect x="0" y="0" width="194" height="18" rx="9" fill="url(#forge)" filter="url(#soft-glow)"/>
      </g>
    </g>

    <g transform="translate(78 478)">
      <rect width="1044" height="70" fill="#282B3B"/>
      <line x1="0" y1="0" x2="1044" y2="0" stroke="#11131C" stroke-width="2"/>
      <text class="mono" x="39" y="44" font-size="28" fill="#F6C177">...</text>
      <text class="mono" x="86" y="44" font-size="28" fill="#EA9AD7">Pursuing goal (3d 2h 18m)</text>
      <text class="mono" x="608" y="44" font-size="20" fill="#908CAA">sidecar nudge applied - still running</text>
    </g>
  </g>
</svg>
